<svg id="Layer_1" data-name="Layer 1" xmlns="http://www.w3.org/2000/svg" viewBox="0 0 508 508"><defs><style>.cls-1{fill:#ffd05b;}.cls-2{fill:#e6e9ee;}.cls-3{fill:#fff;}.cls-4{fill:#ced5e0;}</style></defs><title>Build_Icon</title><circle class="cls-1" cx="254" cy="254" r="254"/><rect class="cls-2" x="112.99" y="229.45" width="248.4" height="59.2" transform="translate(-113.71 243.59) rotate(-45)"/><path class="cls-3" d="M353.6,205.6a63.2,63.2,0,1,1,52-99.2H360.4l-17.2,36.4,17.2,36.4H406A65.69,65.69,0,0,1,353.6,205.6Z"/><path class="cls-3" d="M119.2,302.4a63.2,63.2,0,1,1-52,99.2h45.6L130,365.2l-17.2-36.4H67.2A64.34,64.34,0,0,1,119.2,302.4Z"/><path class="cls-4" d="M198.8,314.4h0a5.56,5.56,0,0,1,0-7.6L292,213.6a5.56,5.56,0,0,1,7.6,0h0a5.56,5.56,0,0,1,0,7.6l-93.2,93.2A5.56,5.56,0,0,1,198.8,314.4Z"/><path class="cls-4" d="M181.6,297.6h0a5.56,5.56,0,0,1,0-7.6l93.2-93.2a5.56,5.56,0,0,1,7.6,0h0a5.56,5.56,0,0,1,0,7.6l-93.2,93.2A5.56,5.56,0,0,1,181.6,297.6Z"/><path class="cls-3" d="M445.2,287.6l-34-34a3,3,0,0,0-1.6-.8H362a2.08,2.08,0,0,0-1.6.8l-34,34a3,3,0,0,0-.8,1.6v48a2.08,2.08,0,0,0,.8,1.6l34,34a3,3,0,0,0,1.6.8h48a2.08,2.08,0,0,0,1.6-.8l34-34a3,3,0,0,0,.8-1.6v-48C446,288.8,445.6,288,445.2,287.6Z"/><circle class="cls-1" cx="385.6" cy="313.2" r="31.6"/><path class="cls-3" d="M196.4,161.2l-34-34a3,3,0,0,0-1.6-.8h-48a2.08,2.08,0,0,0-1.6.8l-34,34a3,3,0,0,0-.8,1.6v48a2.08,2.08,0,0,0,.8,1.6l34,34a3,3,0,0,0,1.6.8h48a2.08,2.08,0,0,0,1.6-.8l34-34a3,3,0,0,0,.8-1.6v-48A3,3,0,0,0,196.4,161.2Z"/><circle class="cls-1" cx="136.8" cy="186.8" r="31.6"/></svg>