<svg id="Layer_1" data-name="Layer 1" xmlns="http://www.w3.org/2000/svg" viewBox="0 0 508 508"><defs><style>.cls-1{fill:#324a5e;}.cls-2{fill:#f9b54c;}.cls-3{fill:#ff7058;}.cls-4{fill:#16914e;}.cls-5{fill:#ffd05b;}.cls-6{fill:#e6e9ee;}</style></defs><title>Grow_Icon</title><circle class="cls-1" cx="254" cy="254" r="254"/><path class="cls-2" d="M421.2,317.6l-10.4-14.4a236.85,236.85,0,0,0-42-45.2L332,226a11.2,11.2,0,0,0-16.4,1.6,11.7,11.7,0,0,0,1.6,15.6l28.4,23.6a1.22,1.22,0,0,1,0,1.6,1.79,1.79,0,0,1-2,0L298,230.8c-4-3.2-10-4-14-1.2a11.4,11.4,0,0,0,.4-14h0c0-.4-.4-.4-.8-.8-4-4.4-11.2-4.8-16-1.2l-60,42.4a1.17,1.17,0,1,1-1.2-2l54.4-38.8a12.7,12.7,0,0,0,2.8-17.6,12.49,12.49,0,0,0-16.8-2.8L184,238.4c7.2-12,12-24.8,10.8-36-.4-5.6-8-8.4-13.6-6.4a11.6,11.6,0,0,0-6.8,6.4s-2,17.2-24.8,30.8c-23.2,13.6-29.2,56.8-29.2,56.8-3.6,16-53.2,49.2-53.2,49.2l38.4,50c23.2-15.2,62-29.6,62-29.6l16.8-6.4a264,264,0,0,0,54.8-28.4l28-19.2,33.2,28c-13.6-4-27.2-4.8-37.6-.8-5.2,2-6,10-2.8,14.8a12.26,12.26,0,0,0,8,5.2s17.2-2.4,36.4,16S366.8,382,366.8,382c16.4-.8,61.2,38.4,61.2,38.4l38.4-50C445.6,351.2,421.2,317.6,421.2,317.6ZM235.6,300a1,1,0,0,1-1.6-.4c-.4-.4,0-1.2.4-1.6l12.8-9.2,2,1.6Zm-10-25.2a1.17,1.17,0,1,1-1.2-2L251.2,254a8.74,8.74,0,0,0,1.2,2Zm85.6,32.8a1.22,1.22,0,0,1-1.6,0L284,286.8a11.79,11.79,0,0,0-2-5.2L311.2,306C311.6,306,311.6,306.8,311.2,307.6Zm13.6-22.4a1.22,1.22,0,0,1-1.6,0L288,256a7.8,7.8,0,0,0,.4-3.2l36.4,30.4A1.79,1.79,0,0,1,324.8,285.2Z"/><path class="cls-3" d="M18,348a253.27,253.27,0,0,0,56.4,85.6l76.8-48.8-52-88.4Z"/><path class="cls-4" d="M450,326.4,378.4,400l46.4,42a252.91,252.91,0,0,0,60.8-83.6Z"/><path class="cls-5" d="M220.8,255.6A11.74,11.74,0,0,0,231.6,244l-.8-36.8a1.2,1.2,0,1,1,2.4,0l1.6,58.8a12.09,12.09,0,0,0,10,12c7.2.8,13.6-4.8,13.2-12l-1.2-53.6a1.2,1.2,0,0,1,2.4,0l1.6,70a12.12,12.12,0,0,0,12.4,12h1.2c6-1.2,10-6.8,10-12.8l-2-73.6a1.2,1.2,0,0,1,2.4,0l2,66.8a12.33,12.33,0,0,0,13.2,12,12.6,12.6,0,0,0,11.6-12.4l-1.2-76c6,12.8,14,23.6,24,28.8,5.2,2.8,11.2-2,12.8-7.6.8-2.4.4-6-1.6-9.2,0,0-13.2-11.6-12-38s-31.2-55.6-31.2-55.6c-11.2-12-11.6-71.2-11.6-71.2l-62.8,4c0,27.6-9.6,68-9.6,68l-4,17.6a287,287,0,0,0-6.8,61.2l.4,48.4C208.8,250.8,214.4,256,220.8,255.6Z"/><path class="cls-6" d="M311.2,6.4A269.51,269.51,0,0,0,254,0a275.33,275.33,0,0,0-45.2,4l-1.6,85.6,102.4,5.6Z"/></svg>