<svg id="Layer_1" data-name="Layer 1" xmlns="http://www.w3.org/2000/svg" viewBox="0 0 508 508"><defs><style>.cls-1{fill:#16914e;}.cls-2{fill:#324a5e;}.cls-3{fill:#fff;}.cls-4{fill:#ffd05b;}</style></defs><title>Learn_Icon</title><circle class="cls-1" cx="254" cy="254" r="254"/><path class="cls-2" d="M307.6,130.8a17.21,17.21,0,0,0-12.4,4.8V92a10.59,10.59,0,0,0-10.4-10.4H242A19.12,19.12,0,1,1,208.4,94a17.21,17.21,0,0,1,4.8-12.4H170.4A10.59,10.59,0,0,0,160,92v43.6a19.12,19.12,0,1,1,12.4,33.6,17.21,17.21,0,0,1-12.4-4.8V206a10.59,10.59,0,0,0,10.4,10.4h42.8a19.12,19.12,0,1,0,33.6,12.4,17.21,17.21,0,0,0-4.8-12.4h42.8A10.59,10.59,0,0,0,295.2,206V164.4A19,19,0,0,0,326.8,150,19.47,19.47,0,0,0,307.6,130.8Z"/><path class="cls-3" d="M434,298.8a19.08,19.08,0,0,0-12.4-5.2L452,262c4-4,4-10.8-.4-14.4L420.8,218a19.29,19.29,0,0,1-5.2,12,19,19,0,1,1-27.2-26.4,17.79,17.79,0,0,1,12-5.6L370,167.6c-4-4-10.8-4-14.4.4l-30.4,31.6a21.38,21.38,0,0,1,12.4,5.2A19,19,0,0,1,311.2,232a17.79,17.79,0,0,1-5.6-12l-30,30c-4,4-4,10.8.4,14.4L306.8,294a19.77,19.77,0,0,0-12,5.6A19,19,0,0,0,322,326c3.2-3.6,5.2-7.6,5.2-12.4L358,343.2c4,4,10.8,4,14.4-.4l29.2-30a19.77,19.77,0,0,0,5.6,12,19,19,0,0,0,26.8-.4C441.6,318,441.6,306,434,298.8Z"/><path class="cls-4" d="M244,364.4a19.08,19.08,0,0,0-12.4-5.2L262,327.6c4-4,4-10.8-.4-14.4l-30.8-29.6a19.29,19.29,0,0,1-5.2,12,19,19,0,0,1-27.2-26.4,17.79,17.79,0,0,1,12-5.6L179.6,234c-4-4-10.8-4-14.4.4L134.8,266a21.38,21.38,0,0,1,12.4,5.2,19,19,0,1,1-26.4,27.2,17.79,17.79,0,0,1-5.6-12L86,316.4c-4,4-4,10.8.4,14.4l30.8,29.6a19.77,19.77,0,0,0-12,5.6,19,19,0,0,0,27.2,26.4c3.2-3.6,5.2-7.6,5.2-12.4l30.8,29.6c4,4,10.8,4,14.4-.4l29.2-30a19.77,19.77,0,0,0,5.6,12,19,19,0,0,0,26.8-.4C251.6,384,251.6,371.6,244,364.4Z"/></svg>